<?xml version="1.0" encoding="UTF-8" standalone="no"?>
<svg
   xmlns:osb="http://www.openswatchbook.org/uri/2009/osb"
   xmlns:dc="http://purl.org/dc/elements/1.1/"
   xmlns:cc="http://creativecommons.org/ns#"
   xmlns:rdf="http://www.w3.org/1999/02/22-rdf-syntax-ns#"
   xmlns:svg="http://www.w3.org/2000/svg"
   xmlns="http://www.w3.org/2000/svg"
   xmlns:sodipodi="http://sodipodi.sourceforge.net/DTD/sodipodi-0.dtd"
   xmlns:inkscape="http://www.inkscape.org/namespaces/inkscape"
   version="1.0"
   width="225.000000pt"
   height="225.000000pt"
   viewBox="0 0 225.000000 225.000000"
   preserveAspectRatio="xMidYMid meet"
   id="svg7064"
   sodipodi:docname="hat.svg"
   inkscape:version="0.92.4 (f8dce91, 2019-08-02)">
  <metadata
     id="metadata7070">
    <rdf:RDF>
      <cc:Work
         rdf:about="">
        <dc:format>image/svg+xml</dc:format>
        <dc:type
           rdf:resource="http://purl.org/dc/dcmitype/StillImage" />
        <dc:title />
      </cc:Work>
    </rdf:RDF>
  </metadata>
  <defs
     id="defs7068">
    <linearGradient
       id="linearGradient6050"
       osb:paint="solid">
      <stop
         style="stop-color:#000000;stop-opacity:1;"
         offset="0"
         id="stop6048" />
    </linearGradient>
  </defs>
  <sodipodi:namedview
     pagecolor="#ffffff"
     bordercolor="#666666"
     borderopacity="1"
     objecttolerance="10"
     gridtolerance="10"
     guidetolerance="10"
     inkscape:pageopacity="0"
     inkscape:pageshadow="2"
     inkscape:window-width="1920"
     inkscape:window-height="1025"
     id="namedview7066"
     showgrid="false"
     inkscape:zoom="1.5733334"
     inkscape:cx="118.4295"
     inkscape:cy="80.777667"
     inkscape:window-x="0"
     inkscape:window-y="27"
     inkscape:window-maximized="1"
     inkscape:current-layer="g7062" />
  <g
     transform="matrix(0.1,0,0,-0.1,-2.8601692,225.47669)"
     id="g7062"
     style="fill:#000000;stroke:none">
    <path
       d="m 1410.9266,1029.9764 86.7271,311.5748 292.302,263.3931 c 414.3622,372.6047 533.2103,507.5133 443.2712,507.5133 -32.1211,0 -571.7556,-462.5438 -687.3915,-584.604 -80.3029,-89.9391 -96.3633,-96.3632 -510.7255,-125.2723 -234.48416,-16.0606 -555.69515,-44.9695 -713.08855,-61.0301 -333.073976,-5.646 -374.234918,-13.8649 -50.79439,-401.23623 C 504.41588,671.57579 683.4862,488.49249 809.82042,373.98016 1019.7586,183.68701 1127.4533,-13.505446 1230.8723,356.01717 c 38.2286,136.59325 79.2118,308.20206 180.0543,673.95923 z m -48.1816,224.8479 c -16.0605,-32.1212 -54.6058,-157.3935 -83.5148,-282.66573 C 1224.5805,708.54895 1164.6327,487.28631 1080.0794,310.46386 1060.8066,291.1912 964.44337,374.70606 810.26207,544.9479 678.56557,689.49285 489.05108,891.85577 386.26355,997.85547 286.68814,1103.8551 206.38538,1197.0062 212.80961,1200.2184 c 12.84843,12.8484 883.33039,99.5754 1043.93579,105.9996 122.0603,3.2121 134.9087,-3.212 105.9996,-51.3937 z"
       id="path7038"
       inkscape:connector-curvature="0"
       sodipodi:nodetypes="cccsccccssccccccccc"
       style="stroke-width:3.2121098" />
    <path
       d="m 1500.772,393.27181 c -1072.11861,-568.56465 -536.05928,-284.28232 0,0 z"
       id="path7040"
       inkscape:connector-curvature="0"
       sodipodi:nodetypes="cc"
       style="stroke-width:1.15996814" />
    <path
       d="m 653.40895,1927.7517 c -38.5453,-112.4239 -28.90897,-314.7871 16.06057,-314.7871 19.27266,0 32.12109,61.0304 35.3332,138.121 l 3.2121,134.9087 32.12111,-112.4239 c 32.1211,-105.9997 35.33321,-109.2118 61.03009,-38.5453 16.06056,44.9695 12.84844,102.7876 -9.63633,150.9692 -38.54531,86.7269 -115.63595,105.9996 -138.12074,41.7574 z"
       id="path7046"
       inkscape:connector-curvature="0"
       style="stroke-width:3.2121098" />
    <path
       d="m 1299.8436,1933.4561 c -9.531,-10.7478 -54.7501,-105.0447 -96.2583,-210.3126 -53.7557,-138.5656 -63.9546,-189.0394 -34.9767,-180.1769 21.9417,7.4225 62.5585,59.7221 89.325,122.384 25.9352,59.5593 65.5576,145.3794 85.0647,193.3594 33.1945,74.2412 5.9389,121.4491 -43.1547,74.7461 z"
       id="path7048"
       inkscape:connector-curvature="0"
       style="stroke-width:3.2121098" />
    <path
       d="m 83.027519,1699.044 c -7.585732,-58.5648 13.361092,-99.5079 75.088191,-156.1273 111.652,-106.4252 164.62001,-105.5341 91.86283,4.6619 -93.48172,137.8972 -62.29214,182.8342 48.75147,66.2697 92.81329,-98.1712 96.74716,-100.4426 57.9561,-17.7248 -58.07559,117.4553 -161.63691,206.096 -220.58748,190.3001 -24.82126,-6.6507 -50.636985,-46.8222 -53.071111,-87.3796 z"
       id="path7050"
       inkscape:connector-curvature="0"
       style="stroke-width:3.2121098" />
    <path
       d="m 1783.2089,1407.3543 c -43.8832,-14.8451 -45.5458,-21.0503 -15.5729,-45.7086 27.7007,-20.7241 6.3683,-38.2861 -66.4929,-61.9934 -87.7651,-29.6902 -93.3622,-38.1667 -40.6168,-52.2997 80.6689,-21.6153 224.1192,29.7336 238.2528,82.4788 15.7951,58.9506 -52.8488,100.6216 -115.5702,77.5229 z"
       id="path7052"
       inkscape:connector-curvature="0"
       style="stroke-width:3.2121098" />
    <path
       d="m 1763.2823,850.77595 c -164.3553,42.96412 -214.6576,20.07977 -96.2171,-44.59272 150.6457,-79.55746 276.8013,-111.59408 313.1949,-80.67961 33.6118,32.52064 -51.017,85.09008 -216.9778,125.27233 z"
       id="path7054"
       inkscape:connector-curvature="0"
       inkscape:transform-center-x="19.941594"
       inkscape:transform-center-y="16.500784"
       style="stroke-width:3.2121098" />
    <path
       d="m 1468.8217,494.42677 c -20.7636,-10.26636 6.1937,-40.66612 78.5194,-82.42357 61.1988,-35.33319 111.5858,-82.96924 111.4705,-108.86574 1.0604,-30.28445 -36.7086,-12.18756 -151.0761,72.38772 -119.9311,87.78741 -149.3547,101.06612 -138.7735,61.57577 18.8114,-70.20519 280.1824,-247.07099 353.9149,-241.42307 46.2293,2.98155 55.8657,19.67216 56.0966,71.46537 -2.4358,79.29583 -250.6435,259.68876 -310.1518,227.28352 z"
       id="path7056"
       inkscape:connector-curvature="0"
       style="stroke-width:3.2121098" />
  </g>
</svg>
